<?xml version="1.0" standalone="no"?>
<!DOCTYPE svg PUBLIC "-//W3C//DTD SVG 20010904//EN"
 "http://www.w3.org/TR/2001/REC-SVG-20010904/DTD/svg10.dtd">
<svg version="1.0" xmlns="http://www.w3.org/2000/svg"
 width="16.000000pt" height="16.000000pt" viewBox="0 0 16.000000 16.000000"
 preserveAspectRatio="xMidYMid meet">
<metadata>
Created by potrace 1.11, written by Peter Selinger 2001-2013
</metadata>
<g transform="translate(0.000000,16.000000) scale(0.006154,-0.006154)"
fill="#000000" stroke="none">
<path d="M775 2024 c-227 -39 -408 -198 -478 -419 -30 -97 -30 -251 1 -350 40
-129 79 -179 347 -449 138 -138 271 -268 295 -287 102 -83 235 -129 375 -129
99 0 177 19 275 67 69 34 100 62 366 327 270 270 294 297 328 366 48 101 67
178 67 280 -1 166 -60 310 -175 425 -152 151 -338 207 -547 165 -98 -20 -185
-61 -262 -124 l-55 -45 -39 33 c-141 121 -319 171 -498 140z m263 -39 c69 -20
163 -71 217 -119 l40 -35 -241 -243 c-208 -210 -246 -253 -276 -313 -51 -101
-71 -192 -66 -308 l3 -95 -35 15 c-19 8 -45 19 -58 24 -42 16 -115 71 -168
127 -63 64 -128 190 -145 280 -16 83 -6 222 20 297 68 194 243 346 441 384 64
12 201 5 268 -14z m882 -4 c345 -108 505 -503 336 -826 -45 -88 -154 -193
-245 -238 -40 -21 -79 -37 -85 -37 -8 0 -12 34 -12 108 -1 78 -6 125 -21 174
-41 133 -78 182 -327 435 l-233 237 46 39 c60 51 170 104 252 121 84 18 208
12 289 -13z m-568 -226 c24 -33 78 -145 78 -160 0 0 -54 -1 -119 -1 l-119 1
15 35 c8 19 17 42 21 50 11 29 75 120 84 120 4 0 23 -20 40 -45z m225 -212
c-2 -1 -28 7 -58 18 -58 22 -57 20 -98 134 -2 5 33 -26 78 -69 44 -44 79 -81
78 -83z m-394 96 c-20 -54 -31 -69 -50 -69 -8 0 -33 -9 -56 -20 -40 -20 -39
-18 37 59 44 44 81 79 83 77 1 -1 -5 -22 -14 -47z m225 -75 c22 -5 32 -13 37
-33 8 -30 7 -162 0 -206 -13 -73 -60 -179 -108 -243 l-24 -32 -25 32 c-72 94
-109 203 -113 332 -4 112 2 138 36 147 31 9 158 11 197 3z m-262 -101 c-2 -49
3 -117 10 -152 15 -72 69 -192 111 -247 l27 -36 -44 -39 c-103 -88 -260 -141
-400 -135 -97 5 -105 9 -110 54 -19 202 33 356 170 493 68 68 132 110 220 142
8 3 16 6 17 6 1 1 1 -38 -1 -86z m471 21 c172 -100 285 -323 270 -527 -4 -45
-11 -85 -16 -90 -15 -15 -173 -16 -240 -2 -81 17 -196 73 -254 125 l-47 42 28
36 c88 115 129 254 119 402 l-5 79 49 -18 c27 -11 70 -32 96 -47z m-143 -592
c114 -56 242 -78 351 -62 43 6 45 6 39 -14 -34 -112 -158 -263 -264 -323 -231
-130 -511 -92 -696 96 -83 83 -178 264 -130 245 30 -12 134 -10 208 3 113 19
223 73 304 148 l26 24 50 -43 c28 -24 78 -57 112 -74z m-785 -37 c29 -11 37
-22 58 -76 l23 -63 -38 40 c-22 21 -61 61 -87 87 -43 43 -45 47 -19 36 16 -6
44 -17 63 -24z m1331 32 c0 -1 -38 -40 -85 -87 l-84 -84 23 57 c28 69 24 65
88 93 29 12 54 22 56 23 1 0 2 0 2 -2z"/>
</g>
</svg>
